<svg width="36" height="36" viewBox="0 0 36 36" fill="none" xmlns="http://www.w3.org/2000/svg">
<path d="M30.375 0H5.625C2.5184 0 0 2.5184 0 5.625V30.375C0 33.4816 2.5184 36 5.625 36H30.375C33.4816 36 36 33.4816 36 30.375V5.625C36 2.5184 33.4816 0 30.375 0Z" fill="#0D59BB"/>
<path d="M27 18C27 13.05 22.95 9 18 9C13.05 9 9 13.05 9 18C9 22.5 12.2625 26.2125 16.5375 26.8875V20.5875H14.2875V18H16.5375V15.975C16.5375 13.725 17.8875 12.4875 19.9125 12.4875C20.925 12.4875 21.9375 12.7125 21.9375 12.7125V14.9625H20.8125C19.6875 14.9625 19.35 15.6375 19.35 16.3125V18H21.825L21.375 20.5875H19.2375V27C23.7375 26.325 27 22.5 27 18Z" fill="white"/>
</svg>
