<svg width="36" height="36" viewBox="0 0 36 36" fill="none" xmlns="http://www.w3.org/2000/svg">
<path d="M30.375 0H5.625C2.5184 0 0 2.5184 0 5.625V30.375C0 33.4816 2.5184 36 5.625 36H30.375C33.4816 36 36 33.4816 36 30.375V5.625C36 2.5184 33.4816 0 30.375 0Z" fill="#AB0655"/>
<path d="M18.0001 10.3499C20.4751 10.3499 20.8126 10.3499 21.8251 10.3499C22.7251 10.3499 23.1751 10.5749 23.5126 10.6874C23.9626 10.9124 24.3001 11.0249 24.6376 11.3624C24.9751 11.6999 25.2001 12.0374 25.3126 12.4874C25.4251 12.8249 25.5376 13.2749 25.6501 14.1749C25.6501 15.1874 25.6501 15.4124 25.6501 17.9999C25.6501 20.5874 25.6501 20.8124 25.6501 21.8249C25.6501 22.7249 25.4251 23.1749 25.3126 23.5124C25.0876 23.9624 24.9751 24.2999 24.6376 24.6374C24.3001 24.9749 23.9626 25.1999 23.5126 25.3124C23.1751 25.4249 22.7251 25.5374 21.8251 25.6499C20.8126 25.6499 20.5876 25.6499 18.0001 25.6499C15.4126 25.6499 15.1876 25.6499 14.1751 25.6499C13.2751 25.6499 12.8251 25.4249 12.4876 25.3124C12.0376 25.0874 11.7001 24.9749 11.3626 24.6374C11.0251 24.2999 10.8001 23.9624 10.6876 23.5124C10.5751 23.1749 10.4626 22.7249 10.3501 21.8249C10.3501 20.8124 10.3501 20.5874 10.3501 17.9999C10.3501 15.4124 10.3501 15.1874 10.3501 14.1749C10.3501 13.2749 10.5751 12.8249 10.6876 12.4874C10.9126 12.0374 11.0251 11.6999 11.3626 11.3624C11.7001 11.0249 12.0376 10.7999 12.4876 10.6874C12.8251 10.5749 13.2751 10.4624 14.1751 10.3499C15.1876 10.3499 15.5251 10.3499 18.0001 10.3499ZM18.0001 8.66235C15.4126 8.66235 15.1876 8.66235 14.1751 8.66235C13.1626 8.66235 12.4876 8.88735 11.9251 9.11235C11.3626 9.33735 10.8001 9.67485 10.2376 10.2374C9.6751 10.7999 9.4501 11.2499 9.1126 11.9249C8.8876 12.4874 8.7751 13.1624 8.6626 14.1749C8.6626 15.1874 8.6626 15.5249 8.6626 17.9999C8.6626 20.5874 8.6626 20.8124 8.6626 21.8249C8.6626 22.8374 8.8876 23.5124 9.1126 24.0749C9.3376 24.6374 9.6751 25.1999 10.2376 25.7624C10.8001 26.3249 11.2501 26.5499 11.9251 26.8874C12.4876 27.1124 13.1626 27.2249 14.1751 27.3374C15.1876 27.3374 15.5251 27.3374 18.0001 27.3374C20.4751 27.3374 20.8126 27.3374 21.8251 27.3374C22.8376 27.3374 23.5126 27.1124 24.0751 26.8874C24.6376 26.6624 25.2001 26.3249 25.7626 25.7624C26.3251 25.1999 26.5501 24.7499 26.8876 24.0749C27.1126 23.5124 27.2251 22.8374 27.3376 21.8249C27.3376 20.8124 27.3376 20.4749 27.3376 17.9999C27.3376 15.5249 27.3376 15.1874 27.3376 14.1749C27.3376 13.1624 27.1126 12.4874 26.8876 11.9249C26.6626 11.3624 26.3251 10.7999 25.7626 10.2374C25.2001 9.67485 24.7501 9.44985 24.0751 9.11235C23.5126 8.88735 22.8376 8.77485 21.8251 8.66235C20.8126 8.66235 20.5876 8.66235 18.0001 8.66235Z" fill="white"/>
<path d="M18.0001 13.1624C15.3001 13.1624 13.1626 15.2999 13.1626 17.9999C13.1626 20.6999 15.3001 22.8374 18.0001 22.8374C20.7001 22.8374 22.8376 20.6999 22.8376 17.9999C22.8376 15.2999 20.7001 13.1624 18.0001 13.1624ZM18.0001 21.1499C16.3126 21.1499 14.8501 19.7999 14.8501 17.9999C14.8501 16.3124 16.2001 14.8499 18.0001 14.8499C19.6876 14.8499 21.1501 16.1999 21.1501 17.9999C21.1501 19.6874 19.6876 21.1499 18.0001 21.1499Z" fill="white"/>
<path d="M22.9501 14.1749C23.5714 14.1749 24.0751 13.6712 24.0751 13.0499C24.0751 12.4285 23.5714 11.9249 22.9501 11.9249C22.3288 11.9249 21.8251 12.4285 21.8251 13.0499C21.8251 13.6712 22.3288 14.1749 22.9501 14.1749Z" fill="white"/>
</svg>
