<svg width="36" height="36" viewBox="0 0 36 36" fill="none" xmlns="http://www.w3.org/2000/svg">
<path d="M30.375 0H5.625C2.5184 0 0 2.5184 0 5.625V30.375C0 33.4816 2.5184 36 5.625 36H30.375C33.4816 36 36 33.4816 36 30.375V5.625C36 2.5184 33.4816 0 30.375 0Z" fill="#1B90D8"/>
<path d="M27 12.375C26.325 12.7125 25.65 12.825 24.8625 12.9375C25.65 12.4875 26.2125 11.8125 26.4375 10.9125C25.7625 11.3625 24.975 11.5875 24.075 11.8125C23.4 11.1375 22.3875 10.6875 21.375 10.6875C19.0125 10.6875 17.2125 12.9375 17.775 15.1875C14.7375 15.075 12.0375 13.6125 10.125 11.3625C9.1125 13.05 9.675 15.1875 11.25 16.3125C10.6875 16.3125 10.125 16.0875 9.5625 15.8625C9.5625 17.55 10.8 19.125 12.4875 19.575C11.925 19.6875 11.3625 19.8 10.8 19.6875C11.25 21.15 12.6 22.275 14.2875 22.275C12.9375 23.2875 10.9125 23.85 9 23.625C10.6875 24.6375 12.6 25.3125 14.625 25.3125C21.4875 25.3125 25.3125 19.575 25.0875 14.2875C25.875 13.8375 26.55 13.1625 27 12.375Z" fill="white"/>
</svg>
