<svg width="36" height="36" viewBox="0 0 36 36" fill="none" xmlns="http://www.w3.org/2000/svg">
<rect width="36" height="36" fill="#E5E5E5"/>
<path d="M30.375 0H5.625C2.5184 0 0 2.5184 0 5.625V30.375C0 33.4816 2.5184 36 5.625 36H30.375C33.4816 36 36 33.4816 36 30.375V5.625C36 2.5184 33.4816 0 30.375 0Z" fill="#149042"/>
<path fill-rule="evenodd" clip-rule="evenodd" d="M24.3 11.5875C22.6125 9.9 20.3625 9 18 9C13.05 9 9 13.05 9 18C9 19.575 9.45001 21.15 10.2375 22.5L9 27L13.725 25.7625C15.075 26.4375 16.5375 26.8875 18 26.8875C22.95 26.8875 27 22.8375 27 17.8875C27 15.525 25.9875 13.275 24.3 11.5875ZM18 25.425C16.65 25.425 15.3 25.0875 14.175 24.4125L13.95 24.3L11.1375 25.0875L11.925 22.3875L11.7 22.05C10.9125 20.8125 10.575 19.4625 10.575 18.1125C10.575 14.0625 13.95 10.6875 18 10.6875C20.025 10.6875 21.825 11.475 23.2875 12.825C24.75 14.2875 25.425 16.0875 25.425 18.1125C25.425 22.05 22.1625 25.425 18 25.425ZM22.05 19.8C21.825 19.6875 20.7 19.125 20.475 19.125C20.25 19.0125 20.1375 19.0125 20.025 19.2375C19.9125 19.4625 19.4625 19.9125 19.35 20.1375C19.2375 20.25 19.125 20.25 18.9 20.25C18.675 20.1375 18 19.9125 17.1 19.125C16.425 18.5625 15.975 17.775 15.8625 17.55C15.75 17.325 15.8625 17.2125 15.975 17.1C16.0875 16.9875 16.2 16.875 16.3125 16.7625C16.425 16.65 16.425 16.5375 16.5375 16.425C16.65 16.3125 16.5375 16.2 16.5375 16.0875C16.5375 15.975 16.0875 14.85 15.8625 14.4C15.75 14.0625 15.525 14.0625 15.4125 14.0625C15.3 14.0625 15.1875 14.0625 14.9625 14.0625C14.85 14.0625 14.625 14.0625 14.4 14.2875C14.175 14.5125 13.6125 15.075 13.6125 16.2C13.6125 17.325 14.4 18.3375 14.5125 18.5625C14.625 18.675 16.0875 21.0375 18.3375 21.9375C20.25 22.725 20.5875 22.5 21.0375 22.5C21.4875 22.5 22.3875 21.9375 22.5 21.4875C22.725 20.925 22.725 20.475 22.6125 20.475C22.5 19.9125 22.275 19.9125 22.05 19.8Z" fill="white"/>
</svg>
